<?xml version="1.0" standalone="no"?><!DOCTYPE svg PUBLIC "-//W3C//DTD SVG 1.1//EN" "http://www.w3.org/Graphics/SVG/1.1/DTD/svg11.dtd"><svg t="1676516612681" class="icon" viewBox="0 0 1024 1024" version="1.1" xmlns="http://www.w3.org/2000/svg" p-id="28612" xmlns:xlink="http://www.w3.org/1999/xlink" width="200" height="200"><path d="M231.68 714.666667c-114.773333 0-178.346667-63.146667-178.346667-178.346667V231.68c0-114.773333 63.146667-178.346667 178.346667-178.346667H426.666667c114.773333 0 178.346667 63.146667 178.346666 178.346667a32 32 0 1 1-64 0c0-80.213333-34.133333-114.346667-114.346666-114.346667H231.68c-80.213333 0-114.346667 34.133333-114.346667 114.346667v304.64c0 80.213333 34.133333 114.346667 114.346667 114.346667H341.333333a32 32 0 0 1 0 64z" fill="#292D32" p-id="28613"></path><path d="M792.32 970.666667H597.333333c-115.029333 0-178.346667-63.36-178.346666-178.346667v-304.64c0-115.029333 63.317333-178.346667 178.346666-178.346667h194.986667c115.2 0 178.389333 63.317333 178.389333 178.346667v304.64c-0.042667 114.986667-63.36 178.346667-178.389333 178.346667zM597.333333 373.333333c-80.213333 0-114.346667 34.133333-114.346666 114.346667v304.64c0 80.213333 34.133333 114.346667 114.346666 114.346667h194.986667c80.170667 0 114.346667-34.133333 114.346667-114.346667v-304.64c0-80.128-34.133333-114.304-114.346667-114.304z" fill="#292D32" p-id="28614"></path><path d="M634.922667 672a32.213333 32.213333 0 0 1-32-32 32.213333 32.213333 0 0 1 32-32h138.666666a32.213333 32.213333 0 0 1 32 32 32.213333 32.213333 0 0 1-32 32z" fill="#292D32" p-id="28615"></path><path d="M672 709.546667v-138.666667a32.213333 32.213333 0 0 1 32-32 32.213333 32.213333 0 0 1 32 32v138.666667a32.213333 32.213333 0 0 1-32 32 32.213333 32.213333 0 0 1-32-32z" fill="#292D32" p-id="28616"></path></svg>