<?xml version="1.0" ?>
<!-- Uploaded to: SVG Repo, www.svgrepo.com, Generator: SVG Repo Mixer Tools -->
<svg width="800px" height="800px" viewBox="0 0 64 64" id="TwoTone" xmlns="http://www.w3.org/2000/svg">
<title/>
<desc/>
<g data-name="Stroke copy 3" id="Stroke_copy_3">
<path d="M50,22V19H14V53H45V47a1,1,0,0,0-1-1H36A16,16,0,0,1,20,30V28l-2,2V24h2.55A4,4,0,0,1,24,22Z" style="fill:#cff09e"/>
<rect height="12" style="fill:#a8dba8" width="14" x="25" y="41"/>
<polygon points="61 28 61 24 50 24 50 53 61 53 61 48 55 48 55 44 61 44 61 40 55 40 55 36 61 36 61 32 55 32 55 28 61 28" style="fill:#cff09e"/>
<polygon points="3 24 3 28 9 28 9 32 3 32 3 36 9 36 9 40 3 40 3 44 9 44 9 48 3 48 3 53 14 53 14 24 3 24" style="fill:#cff09e"/>
<rect height="4" style="fill:#a8dba8" width="40" x="12" y="15"/>
<polygon points="32 5 14 15 50 15 32 5" style="fill:#79bd9a"/>
<polygon points="32 36 23 41 41 41 32 36" style="fill:#79bd9a"/>
<polygon points="43 24 37 30 37 24 33 24 27 30 27 24 24 24 18 30 18 32 46 32 46 24 43 24" style="fill:#a8dba8"/>
</g>
<g data-name="Stroke Close copy 3" id="Stroke_Close_copy_3">
<path d="M61,23H51V20h1a1,1,0,0,0,1-1V16h1a1,1,0,0,0,0-2H50.26L32.49,4.13a1,1,0,0,0-1,0L13.74,14H10a1,1,0,0,0,0,2h1v3a1,1,0,0,0,1,1h1v3H3a1,1,0,0,0-1,1V53a1,1,0,0,0,1,1H61a1,1,0,0,0,1-1V24A1,1,0,0,0,61,23ZM32,6.14,46.14,14H17.86ZM51,16v2H13V16ZM4,29H8v2H4Zm0,8H8v2H4Zm0,8H8v2H4Zm0,4H9a1,1,0,0,0,1-1V44a1,1,0,0,0-1-1H4V41H9a1,1,0,0,0,1-1V36a1,1,0,0,0-1-1H4V33H9a1,1,0,0,0,1-1V28a1,1,0,0,0-1-1H4V25h9V52H4ZM15,20H49V52H45V47a1,1,0,0,0-2,0v5H40V42h2a1,1,0,0,0,0-2h-.74l-8.77-4.87a1,1,0,0,0-1,0L22.74,40H22a1,1,0,0,0,0,2h2V52H20V47a1,1,0,0,0-2,0v5H15ZM26.86,40,32,37.14,37.14,40ZM26,42h5v4H30a1,1,0,0,0,0,2h1v4H26Zm7,10V48h1a1,1,0,0,0,0-2H33V42h5V52Zm18,0V25h9v2H54.5a1,1,0,0,0-1,1v4a1,1,0,0,0,1,1H60v2H54.5a1,1,0,0,0-1,1v4a1,1,0,0,0,1,1H60v2H54.5a1,1,0,0,0-1,1v4a1,1,0,0,0,1,1H60v3Zm8.5-23v2h-4V29Zm0,8v2h-4V37Zm0,8v2h-4V45Z" style="fill:#3b8686"/>
<path d="M18,33H46a1,1,0,0,0,1-1V24a1,1,0,0,0-1-1H18a1,1,0,0,0-1,1v8A1,1,0,0,0,18,33Zm1-2.59L24.41,25H26v6H19ZM38,25h2.59L38,27.59Zm7,6H38v-.59L43.41,25H45Zm-9,0H28v-.59L33.41,25H36Zm-5.41-6L28,27.59V25Zm-9,0L19,27.59V25Z" style="fill:#3b8686"/>
<path d="M50,58a1,1,0,0,0,0-2H14a1,1,0,0,0,0,2Z" style="fill:#3b8686"/>
<path d="M54,60H10a1,1,0,0,0,0,2H54a1,1,0,0,0,0-2Z" style="fill:#3b8686"/>
</g>
</svg>