<?xml version="1.0" standalone="no"?><!DOCTYPE svg PUBLIC "-//W3C//DTD SVG 1.1//EN" "http://www.w3.org/Graphics/SVG/1.1/DTD/svg11.dtd"><svg t="1676528970488" class="icon" viewBox="0 0 1024 1024" version="1.1" xmlns="http://www.w3.org/2000/svg" p-id="72939" xmlns:xlink="http://www.w3.org/1999/xlink" width="200" height="200"><path d="M810.666667 970.666667a200.789333 200.789333 0 0 1-154.026667-71.68 9.344 9.344 0 0 0-1.237333-1.28 33.749333 33.749333 0 0 1-3.882667-5.12 116.949333 116.949333 0 0 1-14.890667-21.333334 196.266667 196.266667 0 0 1-29.056-103.68 201.130667 201.130667 0 0 1 75.946667-158.293333 203.818667 203.818667 0 0 1 126.72-44.373333 197.504 197.504 0 0 1 131.84 49.066666 109.738667 109.738667 0 0 1 16.64 15.786667 204.032 204.032 0 0 1 53.76 137.386667 198.954667 198.954667 0 0 1-29.44 104.533333 181.205333 181.205333 0 0 1-40.533333 47.786667 188.330667 188.330667 0 0 1-131.84 51.2z m0-341.333334A139.306667 139.306667 0 0 0 672 768a134.997333 134.997333 0 0 0 20.053333 71.253333 105.984 105.984 0 0 0 10.666667 15.36l0.256 0.256a39.082667 39.082667 0 0 1 5.248 6.570667 137.301333 137.301333 0 0 0 193.322667 11.093333 123.733333 123.733333 0 0 0 27.306666-32.426666 134.869333 134.869333 0 0 0 20.48-71.68 139.221333 139.221333 0 0 0-37.12-94.293334 67.84 67.84 0 0 0-9.770666-9.386666A134.613333 134.613333 0 0 0 810.666667 629.333333z" fill="#292D32" p-id="72940"></path><path d="M746.666667 799.146667a32.213333 32.213333 0 0 1-32-32 32.213333 32.213333 0 0 1 32-32h127.573333a32 32 0 0 1 0 64z" fill="#292D32" p-id="72941"></path><path d="M778.666667 832.426667v-127.573334a32.213333 32.213333 0 0 1 32-32 32.213333 32.213333 0 0 1 32 32v127.573334a32 32 0 0 1-64 0zM495.616 563.2L118.997333 345.045333a32.085333 32.085333 0 0 1-11.648-43.818666 31.658667 31.658667 0 0 1 43.648-11.648l360.533334 208.64 358.4-207.36a31.829333 31.829333 0 0 1 43.52 11.52 32.469333 32.469333 0 0 1-11.52 43.946666l-374.186667 216.746667a33.578667 33.578667 0 0 1-15.786667 4.266667 31.829333 31.829333 0 0 1-16.341333-4.138667z" fill="#292D32" p-id="72942"></path><path d="M480 922.026667v-386.986667a32.213333 32.213333 0 0 1 32-32 32.213333 32.213333 0 0 1 32 32v386.986667a32.213333 32.213333 0 0 1-32 32 32.213333 32.213333 0 0 1-32-32z" fill="#292D32" p-id="72943"></path><path d="M511.957333 970.624a212.992 212.992 0 0 1-104.106666-24.746667l-227.84-126.293333a232.490667 232.490667 0 0 1-110.506667-187.306667v-241.493333a233.685333 233.685333 0 0 1 110.506667-187.264l227.84-126.293333a213.930667 213.930667 0 0 1 103.722666-24.661334 215.765333 215.765333 0 0 1 104.064 24.661334l227.882667 126.293333a232.32 232.32 0 0 1 110.464 187.264v241.493333a56.704 56.704 0 0 1-0.853333 11.946667 31.488 31.488 0 0 1-20.906667 23.936 30.208 30.208 0 0 1-10.24 1.792 34.133333 34.133333 0 0 1-21.333333-7.765333A136.832 136.832 0 0 0 810.666667 629.162667a138.837333 138.837333 0 0 0-86.656 29.866666 136.96 136.96 0 0 0-52.010667 107.946667 135.253333 135.253333 0 0 0 20.053333 71.253333 109.141333 109.141333 0 0 0 10.666667 15.36 31.317333 31.317333 0 0 1 7.253333 26.453334 32.085333 32.085333 0 0 1-16.213333 22.186666l-78.122667 43.264a207.786667 207.786667 0 0 1-103.68 25.130667z m0-853.333333a155.136 155.136 0 0 0-72.533333 16.213333l-227.84 126.293333a169.429333 169.429333 0 0 0-77.226667 130.986667v241.493333a170.154667 170.154667 0 0 0 77.226667 130.986667l227.84 126.293333a154.154667 154.154667 0 0 0 72.746667 16.341334 154.154667 154.154667 0 0 0 72.746666-16.341334l47.786667-26.325333a198.912 198.912 0 0 1-24.362667-96 201.216 201.216 0 0 1 75.946667-158.293333 205.824 205.824 0 0 1 128.554667-43.989334 198.570667 198.570667 0 0 1 77.525333 15.445334V389.930667a170.24 170.24 0 0 0-77.226667-130.986667l-227.797333-126.293333a173.269333 173.269333 0 0 0-73.386667-15.36z" fill="#292D32" p-id="72944"></path></svg>