<?xml version="1.0" standalone="no"?><!DOCTYPE svg PUBLIC "-//W3C//DTD SVG 1.1//EN" "http://www.w3.org/Graphics/SVG/1.1/DTD/svg11.dtd"><svg t="1676528983212" class="icon" viewBox="0 0 1024 1024" version="1.1" xmlns="http://www.w3.org/2000/svg" p-id="73097" xmlns:xlink="http://www.w3.org/1999/xlink" width="200" height="200"><path d="M495.616 563.2L118.997333 345.045333a32.128 32.128 0 0 1 32.426667-55.466666l360.533333 208.64 358.4-207.36a32.469333 32.469333 0 0 1 43.946667 11.52 32.469333 32.469333 0 0 1-11.52 43.946666l-374.186667 216.746667a40.106667 40.106667 0 0 1-16.64 4.266667 31.829333 31.829333 0 0 1-16.341333-4.138667z" fill="#292D32" p-id="73098"></path><path d="M480 922.026667v-386.986667a32.213333 32.213333 0 0 1 32-32 32.213333 32.213333 0 0 1 32 32v386.986667a32.213333 32.213333 0 0 1-32 32 32.213333 32.213333 0 0 1-32-32z" fill="#292D32" p-id="73099"></path><path d="M512.042667 970.666667a219.648 219.648 0 0 1-104.106667-24.32l-227.84-126.72a232.277333 232.277333 0 0 1-110.08-187.306667V391.253333a233.514667 233.514667 0 0 1 110.08-187.306666l227.84-126.293334a218.368 218.368 0 0 1 104.106667-24.32 218.368 218.368 0 0 1 104.106666 24.32l227.84 126.72a232.277333 232.277333 0 0 1 110.08 187.306667v241.066667a233.472 233.472 0 0 1-110.037333 187.306666l-227.882667 126.293334a219.434667 219.434667 0 0 1-104.106666 24.32z m0-853.333334a155.904 155.904 0 0 0-72.96 16.213334L211.242667 260.266667a171.946667 171.946667 0 0 0-77.226667 131.413333v241.066667a171.946667 171.946667 0 0 0 77.226667 131.413333l227.84 126.72a154.666667 154.666667 0 0 0 72.96 16.341333 154.666667 154.666667 0 0 0 72.96-16.341333l227.84-126.72a171.989333 171.989333 0 0 0 77.269333-131.413333V391.68a171.989333 171.989333 0 0 0-77.269333-131.413333l-227.84-126.72a155.904 155.904 0 0 0-72.96-16.213334z" fill="#292D32" p-id="73100"></path><path d="M693.376 564.906667v-137.386667l-389.12-224.426667a31.658667 31.658667 0 0 1-11.648-43.52 31.573333 31.573333 0 0 1 43.648-11.648l404.906667 233.813334a32.085333 32.085333 0 0 1 16.213333 27.733333v156.16a32 32 0 0 1-64-0.853333z" fill="#292D32" p-id="73101"></path></svg>