<?xml version="1.0" standalone="no"?><!DOCTYPE svg PUBLIC "-//W3C//DTD SVG 1.1//EN" "http://www.w3.org/Graphics/SVG/1.1/DTD/svg11.dtd"><svg t="1676528060773" class="icon" viewBox="0 0 1024 1024" version="1.1" xmlns="http://www.w3.org/2000/svg" p-id="29203" xmlns:xlink="http://www.w3.org/1999/xlink" width="200" height="200"><path d="M708.650667 885.333333a32 32 0 0 1 0.426666-64h1.706667a191.573333 191.573333 0 0 0 130.986667-51.2 188.544 188.544 0 0 0 52.906666-199.253333 187.733333 187.733333 0 0 0-154.026666-135.68 32.128 32.128 0 0 1-27.733334-26.453333 231.04 231.04 0 0 0-154.88-197.973334 248.661333 248.661333 0 0 0-247.893333 64.853334 231.594667 231.594667 0 0 0-39.68 249.6 32 32 0 1 1-60.16 21.76 295.424 295.424 0 0 1 53.76-315.306667 313.770667 313.770667 0 0 1 313.173333-81.493333 289.877333 289.877333 0 0 1 194.986667 226.133333 251.733333 251.733333 0 0 1 184.32 176.213333 250.538667 250.538667 0 0 1-71.253333 265.386667 261.802667 261.802667 0 0 1-174.933334 67.413333z" fill="#292D32" p-id="29204"></path><path d="M235.52 885.333333a185.856 185.856 0 0 1-178.773333-190.72 186.112 186.112 0 0 1 178.773333-190.72 196.266667 196.266667 0 0 1 90.026667 20.48 32.384 32.384 0 0 1 14.08 43.093334 32.384 32.384 0 0 1-43.093334 14.08 131.669333 131.669333 0 0 0-58.026666-13.653334 121.984 121.984 0 0 0-117.333334 126.72 122.368 122.368 0 0 0 119.466667 126.72 31.957333 31.957333 0 0 1 29.44 34.133334 32.810667 32.810667 0 0 1-32.426667 29.866666zM646.4 436.053333a31.786667 31.786667 0 0 1 14.506667-43.093333 194.56 194.56 0 0 1 84.394666-20.906667 33.109333 33.109333 0 0 1 32.426667 31.573334 31.701333 31.701333 0 0 1-31.573333 32.426666 134.570667 134.570667 0 0 0-57.173334 14.08 24.277333 24.277333 0 0 1-14.08 3.84 31.744 31.744 0 0 1-28.501333-17.92zM382.762667 885.333333a32.213333 32.213333 0 0 1-32-32 32.213333 32.213333 0 0 1 32-32h170.666666a32 32 0 0 1 0 64z" fill="#292D32" p-id="29205"></path><path d="M436.096 938.666667v-170.666667a32.213333 32.213333 0 0 1 32-32 32.213333 32.213333 0 0 1 32 32v170.666667a32 32 0 0 1-64 0z" fill="#292D32" p-id="29206"></path></svg>