<?xml version="1.0" standalone="no"?><!DOCTYPE svg PUBLIC "-//W3C//DTD SVG 1.1//EN" "http://www.w3.org/Graphics/SVG/1.1/DTD/svg11.dtd"><svg t="1676343308396" class="icon" viewBox="0 0 1024 1024" version="1.1" xmlns="http://www.w3.org/2000/svg" p-id="41401" xmlns:xlink="http://www.w3.org/1999/xlink" width="200" height="200"><path d="M725.333333 970.666667H298.666667c-188.032 0-245.333333-57.301333-245.333334-245.333334V298.666667c0-188.032 57.301333-245.333333 245.333334-245.333334h64a131.968 131.968 0 0 1 128 64l64 85.333334c13.824 18.474667 15.957333 21.333333 42.666666 21.333333h128c188.032 0 245.333333 57.301333 245.333334 245.333333v256c0 188.032-57.301333 245.333333-245.333334 245.333334z m-426.666666-853.333334c-152.533333 0-181.333333 28.8-181.333334 181.333334v426.666666c0 152.533333 28.8 181.333333 181.333334 181.333334h426.666666c152.533333 0 181.333333-28.8 181.333334-181.333334v-256c0-152.533333-28.8-181.333333-181.333334-181.333333h-128a98.133333 98.133333 0 0 1-93.866666-46.933333l-64-85.333334-0.426667-0.597333A71.04 71.04 0 0 0 362.666667 117.333333z" fill="#292D32" p-id="41402"></path></svg>