<svg xmlns="http://www.w3.org/2000/svg"  viewBox="0 0 48 48" width="48px" height="48px"><path fill="#9fa8da" d="M44,12.9h-7.6c-0.5-3.4-3.4-6-6.9-6s-6.4,2.6-6.9,6H15c-0.8,0-1.5,0.7-1.5,1.5s0.7,1.5,1.5,1.5h0.6l2.5,25.9	c0.2,2.1,1.9,3.6,4,3.6h14.7c2.1,0,3.8-1.6,4-3.6l2.5-25.9H44c0.8,0,1.5-0.7,1.5-1.5S44.8,12.9,44,12.9z"/><path fill="none" stroke="#18193f" stroke-miterlimit="10" stroke-width="3" d="M29.5,11.5V11c0-3-2.5-5.5-5.5-5.5S18.5,8,18.5,11v0.5"/><line x1="7.5" x2="40.5" y1="11.5" y2="11.5" fill="none" stroke="#18193f" stroke-linecap="round" stroke-miterlimit="10" stroke-width="3"/><line x1="36.5" x2="38" y1="27" y2="11.5" fill="none" stroke="#18193f" stroke-linecap="round" stroke-miterlimit="10" stroke-width="3"/><path fill="none" stroke="#18193f" stroke-linecap="round" stroke-miterlimit="10" stroke-width="3" d="M10.7,18.6l2,20.3c0.2,2.1,1.9,3.6,4,3.6h14.7c2.1,0,3.8-1.6,4-3.6l0.5-4.8"/></svg>