<?xml version="1.0" encoding="utf-8"?>
<!-- Generator: Adobe Illustrator 26.5.0, SVG Export Plug-In . SVG Version: 6.00 Build 0)  -->
<svg version="1.1" id="Layer_1" xmlns="http://www.w3.org/2000/svg" xmlns:xlink="http://www.w3.org/1999/xlink" x="0px" y="0px"
	 viewBox="0 0 135.9 136" style="enable-background:new 0 0 135.9 136;" xml:space="preserve">
<style type="text/css">
	.st0{fill:#292D32;}
</style>
<path class="st0" d="M63.9,102.3c-15.2,0-27.5-12.4-27.5-27.5c0-15.2,12.4-27.5,27.5-27.5c15.2,0,27.5,12.4,27.5,27.5l0,0
	C91.4,90,79,102.3,63.9,102.3z M63.9,56C53.4,56,45,64.5,45,74.9s8.4,18.9,18.9,18.9s18.9-8.4,18.9-18.9
	C82.8,64.6,74.3,56.1,63.9,56L63.9,56z M91.8,109.5c-0.4,0-0.7-0.2-1-0.4c-0.4-0.1-0.7-0.3-1-0.5l-0.8-0.6c-1.1-1.1-10-12.4-10-13.8
	c0-0.7,0.2-1.5,0.5-2.2c0.3-0.7,0.7-1.4,1.2-1.9c2.3-2.1,14.3,7.6,16.6,9.7c0.5,0.5,0.9,1.2,1.2,1.9c0.3,0.7,0.5,1.5,0.5,2.2
	c0,1.6-0.6,3-1.6,4.1c-1.1,1.1-2.6,1.6-4.1,1.6C92.7,109.6,92.3,109.6,91.8,109.5L91.8,109.5z"/>
<path class="st0" d="M96.9,130.3H38.9c-25.5,0-33.3-7.8-33.3-33.4V38.8c0-25.3,7.7-33,33-33h8.6c7-0.7,13.7,2.6,17.2,8.6l8.6,11.5
	c1.8,2.5,2.1,2.8,5.8,2.8H97c25.6,0,33.3,7.8,33.3,33.4v34.8C130.2,122.4,122.4,130.2,96.9,130.3L96.9,130.3L96.9,130.3z M39.3,14.8
	c-20.7,0-24.7,3.8-24.7,24.4v58.1c0,20.7,3.9,24.7,24.7,24.7h57.9c20.7,0,24.7-3.9,24.7-24.7V62.2c0-20.5-3.9-24.4-24.7-24.4H79.8
	c-5.1,0.5-10.1-1.9-12.7-6.3l-8.7-11.5l0,0c-1.9-3.8-6.1-6-10.4-5.1L39.3,14.8L39.3,14.8z"/>
</svg>
