<?xml version="1.0" standalone="no"?><!DOCTYPE svg PUBLIC "-//W3C//DTD SVG 1.1//EN" "http://www.w3.org/Graphics/SVG/1.1/DTD/svg11.dtd"><svg t="1676516664840" class="icon" viewBox="0 0 1024 1024" version="1.1" xmlns="http://www.w3.org/2000/svg" p-id="29035" xmlns:xlink="http://www.w3.org/1999/xlink" width="200" height="200"><path d="M631.893333 729.472h-285.866666a125.781333 125.781333 0 0 1-122.026667-128 125.525333 125.525333 0 0 1 83.2-120.746667 184.234667 184.234667 0 0 1 45.226667-167.936 204.8 204.8 0 0 1 145.962666-61.184A192.554667 192.554667 0 0 1 554.666667 259.882667a186.624 186.624 0 0 1 124.629333 138.666666 166.826667 166.826667 0 0 1 113.024 113.322667 163.712 163.712 0 0 1-46.933333 173.696 167.509333 167.509333 0 0 1-113.493334 43.904z m-284.586666-192a61.525333 61.525333 0 0 0-59.306667 64 61.013333 61.013333 0 0 0 60.16 64h282.453333a104.064 104.064 0 0 0 100.266667-135.253333 99.669333 99.669333 0 0 0-82.773333-72.96 32.128 32.128 0 0 1-27.733334-26.453334 127.402667 127.402667 0 0 0-84.906666-109.482666 124.842667 124.842667 0 0 0-37.248-5.717334 139.605333 139.605333 0 0 0-99.754667 41.344 128 128 0 0 0-21.333333 137.813334 32.085333 32.085333 0 0 1-19.2 40.96 32.64 32.64 0 0 1-9.429334 1.792 5.504 5.504 0 0 1-1.237333 0z" fill="#292D32" p-id="29036"></path><path d="M53.333333 640a32.213333 32.213333 0 0 1 32-32 32.213333 32.213333 0 0 1 32 32 267.136 267.136 0 0 0 206.08 259.84l-11.52-19.2a32.042667 32.042667 0 1 1 55.04-32.853333l44.8 74.666666a31.786667 31.786667 0 0 1 0.426667 32 33.322667 33.322667 0 0 1-28.16 16.213334A331.221333 331.221333 0 0 1 53.333333 640zM906.666667 384a267.136 267.136 0 0 0-206.08-259.84l11.52 19.2a32.042667 32.042667 0 1 1-55.04 32.853333l-44.8-74.666666a31.786667 31.786667 0 0 1-0.256-32 31.232 31.232 0 0 1 27.562666-16.213334A331.221333 331.221333 0 0 1 970.410667 384a31.573333 31.573333 0 0 1-31.573334 32 32.213333 32.213333 0 0 1-32.170666-32z" fill="#292D32" p-id="29037"></path></svg>