<?xml version="1.0" standalone="no"?><!DOCTYPE svg PUBLIC "-//W3C//DTD SVG 1.1//EN" "http://www.w3.org/Graphics/SVG/1.1/DTD/svg11.dtd"><svg t="1676341244360" class="icon" viewBox="0 0 1024 1024" version="1.1" xmlns="http://www.w3.org/2000/svg" p-id="13609" xmlns:xlink="http://www.w3.org/1999/xlink" width="200" height="200"><path d="M341.333333 544a32.213333 32.213333 0 0 1-32-32 32.213333 32.213333 0 0 1 32-32h341.333334a32.213333 32.213333 0 0 1 32 32 32.213333 32.213333 0 0 1-32 32z" fill="#292D32" p-id="13610"></path><path d="M480 682.666667V341.333333a32.213333 32.213333 0 0 1 32-32 32.213333 32.213333 0 0 1 32 32v341.333334a32.213333 32.213333 0 0 1-32 32 32.213333 32.213333 0 0 1-32-32z" fill="#292D32" p-id="13611"></path><path d="M640 970.666667H384c-231.765333 0-330.666667-98.901333-330.666667-330.666667V384c0-231.765333 98.901333-330.666667 330.666667-330.666667h256c231.765333 0 330.666667 98.901333 330.666667 330.666667v256c0 231.765333-98.901333 330.666667-330.666667 330.666667z m-256-853.333334C187.136 117.333333 117.333333 187.136 117.333333 384v256c0 196.864 69.802667 266.666667 266.666667 266.666667h256c196.864 0 266.666667-69.802667 266.666667-266.666667V384c0-196.864-69.76-266.666667-266.666667-266.666667z" fill="#292D32" p-id="13612"></path></svg>