<!DOCTYPE svg PUBLIC "-//W3C//DTD SVG 1.1//EN" "http://www.w3.org/Graphics/SVG/1.1/DTD/svg11.dtd">

<!-- Uploaded to: SVG Repo, www.svgrepo.com, Transformed by: SVG Repo Mixer Tools -->
<svg width="800px" height="800px" viewBox="-1.68 -1.68 27.36 27.36" fill="none" xmlns="http://www.w3.org/2000/svg">

    <g id="SVGRepo_bgCarrier" stroke-width="0" transform="translate(2.76,2.76), scale(0.77)">

        <path transform="translate(-1.68, -1.68), scale(0.855)"
              d="M16,31.601675060522908C19.78696006280776,30.97389005654614,20.3696967172797,25.798339869921357,23.09099286016479,23.09099286016479C25.82748943418629,20.368523335392066,30.894241922212778,19.778835341425722,31.682059969314757,16C32.52121908497974,11.974902916962602,29.725544753960783,8.089170701531335,26.826452469650043,5.173547530349959C23.918351103782776,2.2488639070127756,20.105791978567623,-0.16301603663575648,16.000000000000004,0.22851950390374043C12.118681366208989,0.5986488716895749,9.315381839639352,3.879214756654036,7.058640800439921,7.058640800439919C5.209202256045275,9.664235758962828,4.969318528204679,12.808964890087598,4.805480362080475,15.999999999999998C4.627936917554915,19.457969400038074,4.072218701255976,23.095947545682158,6.090791056194025,25.90920894380597C8.39938891798503,29.126675601604887,12.093302507624273,32.249309590623746,16,31.601675060522908"
              fill="#ece37e" strokewidth="0"/>

    </g>

    <g id="SVGRepo_tracerCarrier" stroke-linecap="round" stroke-linejoin="round"/>

    <g id="SVGRepo_iconCarrier">
        <path d="M16 12.9V17.1C16 20.6 14.6 22 11.1 22H6.9C3.4 22 2 20.6 2 17.1V12.9C2 9.4 3.4 8 6.9 8H11.1C14.6 8 16 9.4 16 12.9Z"
              stroke="#222222" stroke-width="1.6799999999999997" stroke-linecap="round" stroke-linejoin="round"/>
        <path
              d="M22 6.9V11.1C22 14.6 20.6 16 17.1 16H16V12.9C16 9.4 14.6 8 11.1 8H8V6.9C8 3.4 9.4 2 12.9 2H17.1C20.6 2 22 3.4 22 6.9Z"
              stroke="#222222" stroke-width="1.6799999999999997" stroke-linecap="round" stroke-linejoin="round"/>
    </g>

</svg>