<?xml version="1.0" standalone="no"?><!DOCTYPE svg PUBLIC "-//W3C//DTD SVG 1.1//EN" "http://www.w3.org/Graphics/SVG/1.1/DTD/svg11.dtd"><svg t="1676342430061" class="icon" viewBox="0 0 1024 1024" version="1.1" xmlns="http://www.w3.org/2000/svg" p-id="16184" xmlns:xlink="http://www.w3.org/1999/xlink" width="200" height="200"><path d="M473.6 970.666667H294.4c-166.698667 0-241.066667-74.368-241.066667-241.066667v-179.2c0-166.698667 74.368-241.066667 241.066667-241.066667h179.2c166.741333 0 241.066667 74.368 241.066667 241.066667v179.2c0 166.698667-74.368 241.066667-241.066667 241.066667z m-179.2-597.333334c-132.266667 0-177.066667 44.672-177.066667 177.066667v179.2c0 132.394667 44.672 177.066667 177.066667 177.066667h179.2c132.394667 0 177.066667-44.672 177.066667-177.066667v-179.2c0-132.266667-44.672-177.066667-177.109334-177.066667z" fill="#292D32" p-id="16185"></path><path d="M729.6 714.666667H682.666667a32.426667 32.426667 0 0 1-32-32v-132.266667c0-132.394667-44.672-177.066667-177.066667-177.066667H341.333333A32.042667 32.042667 0 0 1 309.333333 341.333333V294.4c0-166.698667 74.368-241.066667 241.066667-241.066667h179.2c166.741333 0 241.066667 74.368 241.066667 241.066667v179.2c0 166.698667-74.368 241.066667-241.066667 241.066667z m-179.2-597.333334c-132.266667 0-177.066667 44.672-177.066667 177.066667v14.933333h100.266667c166.741333 0 241.066667 74.368 241.066667 241.066667v100.266667h14.933333c132.394667 0 177.066667-44.672 177.066667-177.066667V294.4c0-132.266667-44.672-177.066667-177.109334-177.066667z" fill="#292D32" p-id="16186"></path></svg>