<?xml version="1.0" standalone="no"?><!DOCTYPE svg PUBLIC "-//W3C//DTD SVG 1.1//EN" "http://www.w3.org/Graphics/SVG/1.1/DTD/svg11.dtd"><svg t="1676342354016" class="icon" viewBox="0 0 1024 1024" version="1.1" xmlns="http://www.w3.org/2000/svg" p-id="14965" xmlns:xlink="http://www.w3.org/1999/xlink" width="200" height="200"><path d="M384 970.666667c-231.68 0-330.666667-98.986667-330.666667-330.666667V384c0-231.68 98.986667-330.666667 330.666667-330.666667h85.333333a32.213333 32.213333 0 0 1 32 32 32.213333 32.213333 0 0 1-32 32H384C187.306667 117.333333 117.333333 187.306667 117.333333 384v256c0 196.693333 69.973333 266.666667 266.666667 266.666667h256c196.693333 0 266.666667-69.973333 266.666667-266.666667v-85.333333a32 32 0 0 1 64 0v85.333333c0 231.68-98.986667 330.666667-330.666667 330.666667z" fill="#292D32" p-id="14966"></path><path d="M362.709333 754.773333a95.616 95.616 0 0 1-67.413333-26.453333 96.170667 96.170667 0 0 1-25.130667-83.157333l18.346667-128.426667a147.072 147.072 0 0 1 37.077333-74.24l336.213334-336.213333a184.746667 184.746667 0 0 1 128-63.658667 184.746667 184.746667 0 0 1 128 63.658667 178.432 178.432 0 0 1 63.146666 141.226666 189.482667 189.482667 0 0 1-63.146666 114.346667l-336.213334 336.170667a147.456 147.456 0 0 1-74.24 37.12l-128.426666 18.346666a72.234667 72.234667 0 0 1-16.213334 1.28z m426.666667-648.192a120.832 120.832 0 0 0-82.218667 44.672l-336.213333 336.213334a86.954667 86.954667 0 0 0-19.2 37.973333l-18.346667 128.426667a33.664 33.664 0 0 0 7.253334 29.013333 29.866667 29.866667 0 0 0 21.76 7.765333 53.034667 53.034667 0 0 0 7.296-0.512l128.426666-18.304a85.333333 85.333333 0 0 0 37.973334-19.2l336.213333-336.213333a130.688 130.688 0 0 0 44.373333-75.52 118.442667 118.442667 0 0 0-44.373333-90.026667 122.666667 122.666667 0 0 0-82.944-44.074666z" fill="#292D32" p-id="14967"></path><path d="M838.357333 418.090667a338.645333 338.645333 0 0 1-232.96-232.96 32.426667 32.426667 0 0 1 22.186667-39.68 31.786667 31.786667 0 0 1 39.253333 22.186666 274.133333 274.133333 0 0 0 188.586667 188.586667 32.213333 32.213333 0 0 1 22.186667 39.68 31.402667 31.402667 0 0 1-30.72 23.466667 27.52 27.52 0 0 1-8.533334-1.28z" fill="#292D32" p-id="14968"></path></svg>