<?xml version="1.0" standalone="no"?><!DOCTYPE svg PUBLIC "-//W3C//DTD SVG 1.1//EN" "http://www.w3.org/Graphics/SVG/1.1/DTD/svg11.dtd"><svg t="1676341584405" class="icon" viewBox="0 0 1024 1024" version="1.1" xmlns="http://www.w3.org/2000/svg" p-id="13908" xmlns:xlink="http://www.w3.org/1999/xlink" width="200" height="200"><path d="M372.906667 949.333333c-209.493333 0-299.093333-89.6-299.093334-299.093333v-5.546667c0-189.44 74.666667-280.746667 241.92-296.618666a32.938667 32.938667 0 0 1 34.986667 29.013333 32.042667 32.042667 0 0 1-29.013333 34.986667c-133.973333 12.373333-183.893333 75.52-183.893334 232.96v5.546666c0 173.653333 61.44 235.093333 235.093334 235.093334h278.186666c173.653333 0 235.093333-61.44 235.093334-235.093334v-5.546666c0-158.293333-50.773333-221.44-187.306667-232.96a31.914667 31.914667 0 1 1 5.546667-63.573334c169.813333 14.506667 245.76 106.24 245.76 296.96v5.546667c0 208.64-89.6 298.24-299.093334 298.24z" fill="#292D32" p-id="13909"></path><path d="M480 640V154.453333a32.213333 32.213333 0 0 1 32-32 32.213333 32.213333 0 0 1 32 32V640a32.213333 32.213333 0 0 1-32 32 32.213333 32.213333 0 0 1-32-32z" fill="#292D32" p-id="13910"></path><path d="M632.32 272.213333l-120.234667-120.362666-120.32 120.32a32 32 0 0 1-45.226666-45.226667L489.386667 84.053333a32.170667 32.170667 0 0 1 45.226666 0l142.933334 142.933334a32.170667 32.170667 0 0 1 0 45.226666 30.933333 30.933333 0 0 1-22.613334 9.386667 31.658667 31.658667 0 0 1-22.613333-9.386667z" fill="#292D32" p-id="13911"></path></svg>