<?xml version="1.0" standalone="no"?><!DOCTYPE svg PUBLIC "-//W3C//DTD SVG 1.1//EN" "http://www.w3.org/Graphics/SVG/1.1/DTD/svg11.dtd"><svg t="1676528778985" class="icon" viewBox="0 0 1024 1024" version="1.1" xmlns="http://www.w3.org/2000/svg" p-id="72162" xmlns:xlink="http://www.w3.org/1999/xlink" width="200" height="200"><path d="M566.229333 457.770667a32.170667 32.170667 0 0 1 0-45.226667l349.866667-349.866667a32 32 0 0 1 45.226667 45.226667l-349.866667 349.866667a31.957333 31.957333 0 0 1-22.613333 9.386666 31.658667 31.658667 0 0 1-22.613334-9.386666z" fill="#292D32" p-id="72163"></path><path d="M554.666667 501.333333a32.213333 32.213333 0 0 1-32-32V263.253333a32.213333 32.213333 0 0 1 32-32 32.213333 32.213333 0 0 1 32 32v174.08h174.08a32 32 0 0 1 0 64z" fill="#292D32" p-id="72164"></path><path d="M384 970.666667c-231.68 0-330.666667-98.986667-330.666667-330.666667V384c0-231.68 98.986667-330.666667 330.666667-330.666667h85.333333a32.213333 32.213333 0 0 1 32 32 32.213333 32.213333 0 0 1-32 32H384C187.306667 117.333333 117.333333 187.306667 117.333333 384v256c0 196.693333 69.973333 266.666667 266.666667 266.666667h256c196.693333 0 266.666667-69.973333 266.666667-266.666667v-85.333333a32 32 0 0 1 64 0v85.333333c0 231.68-98.986667 330.666667-330.666667 330.666667z" fill="#292D32" p-id="72165"></path></svg>