<?xml version="1.0" encoding="UTF-8"?>
<svg id="Layer_1" xmlns="http://www.w3.org/2000/svg" viewBox="0 0 179 179.2">
    <defs>
        <style>.cls-1{fill:#292d32;}</style>
    </defs>
    <path class="cls-1"
          d="M87.6,144.1c-21.9,0-39.6-17.7-39.6-39.6s17.7-39.6,39.6-39.6c21.9,0,39.6,17.7,39.6,39.6h0c0,21.8-17.7,39.6-39.6,39.6Zm0-66.6c-15,0-27.1,12.1-27.1,27.1s12.1,27.1,27.1,27.1,27.1-12.1,27.1-27.1c0-15-12.1-27.1-27.1-27.1h0Zm40,76.8c-.5,0-1-.3-1.5-.5-.5-.2-1-.4-1.5-.8l-1.3-1c-1.5-1.6-14.4-17.7-14.4-19.9,0-1.1,.2-2.2,.7-3.2,.4-1,1-1.9,1.8-2.7,3.3-3.1,20.5,10.9,23.8,14,.7,.8,1.3,1.7,1.8,2.8,.4,1,.7,2.1,.7,3.2,0,2.2-.9,4.3-2.4,5.9-1.6,1.5-3.7,2.4-5.9,2.4-.6,0-1.1,0-1.7-.2Z"/>
    <path class="cls-1"
          d="M131.1,179.2H47.9C11.2,179.2,0,167.9,0,131.2V47.6C0,11.2,11.1,.2,47.4,.2h12.4c10-1.1,19.6,3.7,24.8,12.4l12.4,16.5c2.7,3.6,3.1,4.1,8.3,4.1h25.9c36.7,0,47.9,11.2,47.9,48v50.1c0,36.8-11.2,48-47.9,48h0ZM48.4,13.2c-29.8,0-35.4,5.6-35.4,35.1v83.5c0,29.8,5.6,35.4,35.4,35.4h83.2c29.8,0,35.4-5.6,35.4-35.4v-50.5c0-29.5-5.6-35.1-35.4-35.1h-25c-7.4,.7-14.5-2.8-18.3-9.1l-12.5-16.5h0c-2.8-5.6-8.8-8.5-14.9-7.4h-12.5Z"/>
</svg>