<?xml version="1.0" standalone="no"?><!DOCTYPE svg PUBLIC "-//W3C//DTD SVG 1.1//EN" "http://www.w3.org/Graphics/SVG/1.1/DTD/svg11.dtd"><svg t="1676528877139" class="icon" viewBox="0 0 1024 1024" version="1.1" xmlns="http://www.w3.org/2000/svg" p-id="72626" xmlns:xlink="http://www.w3.org/1999/xlink" width="200" height="200"><path d="M352.085333 725.333333v-178.773333l-30.72 30.72a32 32 0 0 1-45.226666-45.226667l85.333333-85.333333a32.128 32.128 0 0 1 34.986667-6.826667 31.616 31.616 0 0 1 19.626666 29.44v256a32 32 0 0 1-64 0z" fill="#292D32" p-id="72627"></path><path d="M446.677333 577.237333l-85.333333-85.333333a32 32 0 0 1 45.226667-45.184l85.333333 85.333333a32.170667 32.170667 0 0 1 0 45.226667 31.914667 31.914667 0 0 1-45.226667 0z" fill="#292D32" p-id="72628"></path><path d="M384 970.666667c-231.68 0-330.666667-98.986667-330.666667-330.666667V384c0-231.68 98.986667-330.666667 330.666667-330.666667h213.333333a32.213333 32.213333 0 0 1 32 32 32.213333 32.213333 0 0 1-32 32H384C187.306667 117.333333 117.333333 187.306667 117.333333 384v256c0 196.693333 69.973333 266.666667 266.666667 266.666667h256c196.693333 0 266.666667-69.973333 266.666667-266.666667v-213.333333a32 32 0 0 1 64 0v213.333333c0 231.68-98.986667 330.666667-330.666667 330.666667z" fill="#292D32" p-id="72629"></path><path d="M938.666667 458.709333h-170.666667c-145.834667 0-202.666667-56.874667-202.666667-202.752v-170.666666a31.616 31.616 0 0 1 19.626667-29.397334 30.805333 30.805333 0 0 1 12.202667-2.517333 32.853333 32.853333 0 0 1 22.784 9.344l341.333333 341.333333a32 32 0 0 1-22.613333 54.656zM629.333333 162.56V256c0 110.122667 28.544 138.709333 138.666667 138.709333h93.44z" fill="#292D32" p-id="72630"></path></svg>