<?xml version="1.0" encoding="utf-8"?>
<!-- Generator: Adobe Illustrator 23.0.3, SVG Export Plug-In . SVG Version: 6.00 Build 0)  -->
<svg version="1.1" id="Layer_1" xmlns="http://www.w3.org/2000/svg" xmlns:xlink="http://www.w3.org/1999/xlink" x="0px" y="0px"
	 viewBox="0 0 48 48" style="enable-background:new 0 0 48 48;" xml:space="preserve">
<style type="text/css">
	.st0{fill:#9FA8DA;}
	.st1{fill:#FFE082;}
	.st2{fill:#8CE7F2;}
	.st3{fill:none;stroke:#000000;stroke-width:3;stroke-linecap:round;stroke-linejoin:round;stroke-miterlimit:10;}
	.st4{fill:none;stroke:#000000;stroke-width:3;stroke-linecap:round;stroke-linejoin:round;}
	.st5{fill:none;stroke:#000000;stroke-width:3;}
	.st6{fill:none;stroke:#000000;stroke-width:3;stroke-linecap:round;}
	.st7{fill:none;stroke:#000000;stroke-width:3;stroke-miterlimit:10;}
	.st8{fill:none;stroke:#000000;stroke-width:3;stroke-linecap:round;stroke-miterlimit:10;}
	.st9{fill:none;stroke:#000000;stroke-width:3;stroke-linejoin:round;stroke-miterlimit:10;}
	.st10{fill:#A5D6A7;}
	.st11{fill:#F48FB1;}
	.st12{fill:#90CAF9;}
	.st13{fill:#FFAB91;}
	.st14{fill:#18193F;}
	.st15{fill:none;stroke:#18193F;stroke-width:3;stroke-linecap:round;stroke-linejoin:round;}
	.st16{fill:none;stroke:#18193F;stroke-width:3;stroke-linecap:round;stroke-linejoin:round;stroke-miterlimit:10;}
	.st17{fill:none;stroke:#18193F;stroke-width:3;}
	.st18{fill:none;stroke:#18193F;stroke-width:3;stroke-linecap:round;}
	.st19{fill:none;stroke:#18193F;stroke-width:3;stroke-miterlimit:10;}
	.st20{fill:none;stroke:#18193F;stroke-width:3;stroke-linecap:round;stroke-miterlimit:10;}
	.st21{fill:none;stroke:#18193F;stroke-width:3;stroke-linejoin:round;stroke-miterlimit:10;}
</style>
<path class="st2" d="M38,40h5.6c0.3,0,0.5-0.1,0.7-0.3C51.5,33.1,47,25,40.5,25H39l0-5c0-0.4-0.1-0.8-0.4-1
	C29.4,9.1,18,15.5,18,24.5V25h-4.7c-0.3,0-0.5,0.1-0.7,0.3C5.5,31.9,10,40,16.5,40h2.1H38z"/>
<polyline class="st16" points="28.5,29.8 24,25.3 19.5,29.8 "/>
<line class="st16" x1="24" y1="40.3" x2="24" y2="25.3"/>
<path class="st16" d="M32.4,13.8c-1.9-2.6-5-4.3-8.4-4.3c-5.8,0-10.5,4.7-10.5,10.5v0.5H12c-4.1,0-7.5,3.4-7.5,7.5s3.4,7.5,7.5,7.5
	h2.1"/>
<path class="st16" d="M33.5,35.5H36c4.1,0,7.5-3.4,7.5-7.5s-3.4-7.5-7.5-7.5h-1.5"/>
</svg>